<svg width="12" height="12" viewBox="0 0 12 12" fill="none" xmlns="http://www.w3.org/2000/svg">
<path fill-rule="evenodd" clip-rule="evenodd" d="M10.4997 12H8.99973V10.5H10.4997V12ZM3.00027 10.4999H4.50028V9H6.00023V7.49998H4.50028H3.00027V8.99996V10.4999ZM3.00027 4.49994H4.50028V2.99996H3.00027V4.49994ZM8.99996 4.49994H7.49994V3.00004H6.00019V1.50002H7.50017L7.49994 3.00004L8.99973 2.99996V1.49998H10.4997V3L8.99973 2.99996L8.99996 4.49994ZM8.99973 1.49998L7.50017 1.50002L7.49994 0H8.99996L8.99973 1.49998ZM7.49994 10.4999L8.99973 10.5L8.99996 9H10.4997V7.49998H8.99973L8.99996 9L7.49994 8.99992V10.4999ZM10.4997 10.5L12.0001 10.4999V8.99996L10.4997 9V10.5ZM3.00027 8.99996L1.49994 9V7.49998H3.00027V8.99996ZM4.50028 7.49998H6.00023L7.50017 7.49994V5.99996H6.00023V4.49998L4.50028 4.49994H3.00027V5.99996V7.49998H4.50028ZM1.49994 7.49998H3.00027V5.99996V4.49994L1.49994 4.49998V5.99996H0V7.49994L1.49994 7.49998Z" fill="white"/>
</svg>
